<?xml version="1.0" encoding="utf-8"?>
<!-- Generator: Adobe Illustrator 16.0.0, SVG Export Plug-In . SVG Version: 6.00 Build 0)  -->
<!DOCTYPE svg PUBLIC "-//W3C//DTD SVG 1.1//EN" "http://www.w3.org/Graphics/SVG/1.1/DTD/svg11.dtd">
<svg version="1.1" id="Ebene_1" xmlns="http://www.w3.org/2000/svg" xmlns:xlink="http://www.w3.org/1999/xlink" x="0px" y="0px"
	 width="595.281px" height="595.281px" viewBox="-297.5 543.804 595.281 595.281"
	 enable-background="new -297.5 543.804 595.281 595.281" xml:space="preserve">
<path d="M297.781,576.625v529.508c0,18.203-14.75,32.82-32.82,32.82H113.216V908.547h77.334l11.561-89.824h-89.027V761.32
	c0-26.043,7.176-43.715,44.514-43.715h47.568v-80.389c-8.238-1.064-36.406-3.588-69.359-3.588
	c-68.564,0-115.602,41.855-115.602,118.789v66.305h-77.6v89.824h77.6v230.539H-264.68c-18.071,0-32.82-14.75-32.82-32.82V576.625
	c0-18.07,14.749-32.82,32.82-32.82h529.508C283.031,543.804,297.781,558.554,297.781,576.625z"/>
</svg>
