<svg xmlns="http://www.w3.org/2000/svg" xmlns:xlink="http://www.w3.org/1999/xlink" width="423.39" height="334.71">
  <defs>
    <path id="a" d="M0 0h423.78v311.57H0z"/>
  </defs>
  <clipPath id="b">
    <use overflow="visible" xlink:href="#a"/>
  </clipPath>
  <path fill="#010101" d="M131.69 139.3s42.03-19.08 78.45 0c0 0 34.47-19.48 77.3 0l13.24-21.07s-59.98-18.69-90.54 12.73c0 0-22.77-31.02-91.3-12.73l12.85 21.08z" clip-path="url(#b)"/>
  <defs>
    <path id="c" d="M0 0h423.78v311.57H0z"/>
  </defs>
  <clipPath id="d">
    <use overflow="visible" xlink:href="#c"/>
  </clipPath>
  <path fill="#010101" d="M121.56 108.69s66.59-8.56 88.2 17.2c0 0-14.6-29.13-90.92-27.54l2.72 10.34z" clip-path="url(#d)"/>
  <defs>
    <path id="e" d="M0 0h423.78v311.57H0z"/>
  </defs>
  <clipPath id="f">
    <use overflow="visible" xlink:href="#e"/>
  </clipPath>
  <path fill="#010101" d="M125.26 92.58s66.39 3.39 84.5 29.43c0 0-9.74-26.24-85.47-36.78l.97 7.35z" clip-path="url(#f)"/>
  <defs>
    <path id="g" d="M0 0h423.78v311.57H0z"/>
  </defs>
  <clipPath id="h">
    <use overflow="visible" xlink:href="#g"/>
  </clipPath>
  <path fill="#010101" d="M210.14 118.63s-8.17-24.34-82.54-38.81v-4.93s70.66 15.7 82.54 43.74" clip-path="url(#h)"/>
  <defs>
    <path id="i" d="M0 0h423.78v311.57H0z"/>
  </defs>
  <clipPath id="j">
    <use overflow="visible" xlink:href="#i"/>
  </clipPath>
  <path fill="#010101" d="M210.15 126.78s16.54-26.84 88.38-16.9l2.15-12.32s-65.22-3.98-90.53 29.22" clip-path="url(#j)"/>
  <defs>
    <path id="k" d="M0 0h423.78v311.57H0z"/>
  </defs>
  <clipPath id="l">
    <use overflow="visible" xlink:href="#k"/>
  </clipPath>
  <path fill="#010101" d="M209.91 105.44c-5.6-8.36 6.33-18.47 8.86-25.88 3.3-9.68-4.89-18.03-11.01-20.12-1.76-.6 9.57 1.08 14.16 4.18 7.78 5.26 6.6 15.83 1.45 22.07 3.6-4.24 7.22-9.64 6.54-15.56-1.08-9.49-12.15-14.76-19.1-19.35-8.56-5.65-17.97-14.24-18.38-25.64-.37-10.35 5.53-20 12.16-25.14-4.4 4.11-6.11 11.65-6.01 17.47.2 12.2 10.35 17.78 19.4 23.44 9.77 6.1 20.83 14.2 21.37 27.08.46 11.07-7.36 19.15-16.4 24.13-9.05 5-13.04 13.32-13.04 13.32" clip-path="url(#l)"/>
  <defs>
    <path id="m" d="M0 0h423.78v311.57H0z"/>
  </defs>
  <clipPath id="n">
    <use overflow="visible" xlink:href="#m"/>
  </clipPath>
  <path fill="#161615" d="M16.72 215.94H0v-38.99h14.86c2.58 0 4.81.32 6.69.95a9.54 9.54 0 0 1 4.23 2.56 10.2 10.2 0 0 1 2.57 6.8c0 3.06-.97 5.33-2.9 6.81-.65.53-1.1.85-1.36.98l-1.37.64a9.95 9.95 0 0 1 5.66 3.27 9.22 9.22 0 0 1 2.1 6.16c0 2.72-.9 5.11-2.73 7.2-2.11 2.42-5.79 3.62-11.03 3.62m-8.2-23.2h4.04c2.37 0 4.13-.26 5.27-.78 1.15-.52 1.73-1.65 1.73-3.38s-.53-2.87-1.59-3.43-2.84-.83-5.35-.83h-4.1v8.42zm0 15.84h5.85c2.44 0 4.27-.3 5.49-.92 1.22-.61 1.83-1.82 1.83-3.63 0-1.8-.65-2.99-1.94-3.56-1.3-.58-3.36-.87-6.2-.87H8.52v8.98z" clip-path="url(#n)"/>
  <defs>
    <path id="o" d="M0 0h423.78v311.57H0z"/>
  </defs>
  <clipPath id="p">
    <use overflow="visible" xlink:href="#o"/>
  </clipPath>
  <path fill="#161615" d="M66.53 176.95v7.75H47.52v8.04h17.1v7.42h-17.1v8.08h19.62v7.7H39v-38.99z" clip-path="url(#p)"/>
  <defs>
    <path id="q" d="M0 0h423.78v311.57H0z"/>
  </defs>
  <clipPath id="r">
    <use overflow="visible" xlink:href="#q"/>
  </clipPath>
  <path fill="#161615" d="M103.3 215.94l-3.55-8.42H83.74l-3.55 8.42h-9.07l16.5-38.99h8.25l16.5 39h-9.07zm-11.53-27.38l-4.8 11.32h9.55l-4.75-11.32z" clip-path="url(#r)"/>
  <defs>
    <path id="s" d="M0 0h423.78v311.57H0z"/>
  </defs>
  <clipPath id="t">
    <use overflow="visible" xlink:href="#s"/>
  </clipPath>
  <path fill="#161615" d="M144.87 176.95h8.52v38.99h-8.52l-18.19-24.43v24.43h-8.52v-38.99h7.97l18.74 25.1z" clip-path="url(#t)"/>
  <defs>
    <path id="u" d="M0 0h423.78v311.57H0z"/>
  </defs>
  <clipPath id="v">
    <use overflow="visible" xlink:href="#u"/>
  </clipPath>
  <path fill="#161615" d="M173.08 184.73a3.4 3.4 0 0 0-1.23 2.73c0 1.14.5 2.04 1.5 2.71 1 .67 3.31 1.46 6.94 2.37 3.62.91 6.44 2.28 8.44 4.1 2 1.82 3 4.48 3 7.98s-1.28 6.33-3.85 8.5c-2.56 2.18-5.94 3.27-10.13 3.27-6.05 0-11.5-2.28-16.33-6.86l5.08-6.36c4.11 3.68 7.92 5.53 11.41 5.53 1.57 0 2.8-.35 3.69-1.04a3.33 3.33 0 0 0 1.34-2.79c0-1.17-.47-2.1-1.42-2.79s-2.82-1.38-5.63-2.1c-4.44-1.07-7.7-2.47-9.75-4.2-2.06-1.73-3.09-4.45-3.09-8.15s1.3-6.55 3.91-8.56c2.6-2 5.86-3.01 9.75-3.01 2.55 0 5.1.44 7.65 1.34 2.55.89 4.77 2.15 6.66 3.8l-4.31 6.35c-3.32-2.57-6.74-3.85-10.27-3.85-1.42 0-2.54.34-3.36 1.03" clip-path="url(#v)"/>
  <defs>
    <path id="w" d="M0 0h423.78v311.57H0z"/>
  </defs>
  <clipPath id="x">
    <use overflow="visible" xlink:href="#w"/>
  </clipPath>
  <path fill="#161615" d="M247.29 215.94h-16.72v-38.99h14.86c2.58 0 4.81.32 6.69.95s3.29 1.49 4.23 2.56a10.2 10.2 0 0 1 2.57 6.8c0 3.06-.97 5.33-2.9 6.81-.65.53-1.1.85-1.36.98l-1.37.64a9.94 9.94 0 0 1 5.65 3.27 9.22 9.22 0 0 1 2.1 6.16c0 2.72-.9 5.11-2.72 7.2-2.1 2.42-5.79 3.62-11.03 3.62m-8.2-23.2h4.05c2.36 0 4.12-.26 5.27-.78 1.14-.52 1.72-1.65 1.72-3.38s-.53-2.87-1.59-3.43c-1.05-.56-2.84-.83-5.35-.83h-4.1v8.42zm0 15.84h5.85c2.44 0 4.27-.3 5.49-.92 1.22-.61 1.83-1.82 1.83-3.63 0-1.8-.65-2.99-1.94-3.56s-3.36-.87-6.2-.87h-5.02v8.98z" clip-path="url(#x)"/>
  <defs>
    <path id="y" d="M0 0h423.78v311.57H0z"/>
  </defs>
  <clipPath id="z">
    <use overflow="visible" xlink:href="#y"/>
  </clipPath>
  <path fill="#161615" d="M300.33 210.56a19.41 19.41 0 0 1-14.26 5.77c-5.64 0-10.4-1.92-14.26-5.77-3.86-3.85-5.79-8.64-5.79-14.36 0-5.73 1.93-10.52 5.8-14.37a19.4 19.4 0 0 1 14.25-5.77 19.4 19.4 0 0 1 14.26 5.77c3.86 3.85 5.79 8.64 5.79 14.37 0 5.72-1.93 10.51-5.79 14.36m-2.9-14.34c0-3.47-1.09-6.44-3.27-8.9-2.19-2.45-4.87-3.67-8.06-3.67s-5.87 1.22-8.06 3.68-3.27 5.42-3.27 8.9 1.09 6.43 3.27 8.87c2.19 2.43 4.87 3.65 8.06 3.65s5.87-1.22 8.06-3.65a12.83 12.83 0 0 0 3.27-8.88" clip-path="url(#z)"/>
  <defs>
    <path id="A" d="M0 0h423.78v311.57H0z"/>
  </defs>
  <clipPath id="B">
    <use overflow="visible" xlink:href="#A"/>
  </clipPath>
  <path fill="#161615" d="M345.45 210.56a19.42 19.42 0 0 1-14.26 5.77c-5.64 0-10.4-1.92-14.26-5.77-3.86-3.85-5.79-8.64-5.79-14.36 0-5.73 1.93-10.52 5.8-14.37a19.4 19.4 0 0 1 14.25-5.77c5.65 0 10.4 1.92 14.26 5.77 3.86 3.85 5.79 8.64 5.79 14.37 0 5.72-1.93 10.51-5.79 14.36m-2.9-14.34c0-3.47-1.09-6.44-3.27-8.9a10.38 10.38 0 0 0-8.06-3.67c-3.19 0-5.87 1.22-8.06 3.68-2.18 2.45-3.28 5.42-3.28 8.9s1.1 6.43 3.28 8.87a10.4 10.4 0 0 0 8.06 3.65c3.19 0 5.87-1.22 8.06-3.65a12.83 12.83 0 0 0 3.28-8.88" clip-path="url(#B)"/>
  <defs>
    <path id="C" d="M0 0h423.78v311.57H0z"/>
  </defs>
  <clipPath id="D">
    <use overflow="visible" xlink:href="#C"/>
  </clipPath>
  <path fill="#161615" d="M358.45 176.95h8.52v16.01l14.42-16.01h10.54l-15.18 17.23L384 204.6l7.92 11.35H382l-11.2-15.4-3.83 4.36v11.04h-8.52v-38.99z" clip-path="url(#D)"/>
  <g>
    <defs>
      <path id="E" d="M0 0h423.78v311.57H0z"/>
    </defs>
    <clipPath id="F">
      <use overflow="visible" xlink:href="#E"/>
    </clipPath>
    <path fill="#161615" d="M405.13 184.73a3.4 3.4 0 0 0-1.23 2.73c0 1.14.5 2.04 1.5 2.71 1 .67 3.31 1.46 6.94 2.37 3.62.91 6.44 2.28 8.44 4.1 2 1.82 3 4.48 3 7.98s-1.28 6.33-3.85 8.5c-2.56 2.18-5.94 3.27-10.13 3.27-6.05 0-11.5-2.28-16.34-6.86l5.09-6.36c4.1 3.68 7.92 5.53 11.41 5.53 1.57 0 2.8-.35 3.69-1.04a3.33 3.33 0 0 0 1.34-2.79c0-1.17-.48-2.1-1.42-2.79-.95-.69-2.83-1.38-5.63-2.1-4.44-1.07-7.69-2.47-9.75-4.2-2.06-1.73-3.09-4.45-3.09-8.15s1.3-6.55 3.9-8.56c2.61-2 5.86-3.01 9.76-3.01 2.55 0 5.1.44 7.65 1.34a20.4 20.4 0 0 1 6.66 3.8l-4.31 6.35c-3.32-2.57-6.74-3.85-10.27-3.85-1.43 0-2.54.34-3.36 1.03" clip-path="url(#F)"/>
  </g>
  <g>
    <path fill="#161615" d="M344.81 233.24c-21.96 54.57-74.56 93.1-135.81 93.1-61.26 0-113.86-38.53-135.81-93.1h-8.82c22.4 59.3 78.77 101.47 144.63 101.47s122.24-42.18 144.63-101.47h-8.82z"/>
  </g>
  <g>
    <defs>
      <path id="G" d="M0 0h423.78v311.57H0z"/>
    </defs>
    <clipPath id="H">
      <use overflow="visible" xlink:href="#G"/>
    </clipPath>
    <path fill="#161615" d="M160.25 26.25c-55.99 19-97.9 69.79-105.1 131.31h8.25c7.04-56.87 45.42-103.91 96.85-122.46v-8.85z" clip-path="url(#H)"/>
  </g>
  <g>
    <defs>
      <path id="I" d="M0 0h423.78v311.57H0z"/>
    </defs>
    <clipPath id="J">
      <use overflow="visible" xlink:href="#I"/>
    </clipPath>
    <path fill="#161615" d="M260.92 27.37v8.91c49.83 19.32 86.78 65.58 93.68 121.28h8.24c-7.06-60.35-47.53-110.38-101.92-130.2" clip-path="url(#J)"/>
  </g>
  <g>
    <defs>
      <path id="K" d="M0 0h423.78v311.57H0z"/>
    </defs>
    <clipPath id="L">
      <use overflow="visible" xlink:href="#K"/>
    </clipPath>
    <path fill="#161615" d="M136.43 277.33a15.8 15.8 0 0 1 .91-9.99c.46-.98 1-1.88 1.64-2.68.64-.8 1.35-1.5 2.16-2.05.8-.57 1.68-.97 2.61-1.21 1.1-.29 2-.28 2.73.03.73.31 1.2.9 1.4 1.73.09.33.13.67.13 1.03s-.05.73-.13 1.1c-.09.38-.2.75-.35 1.12-.14.37-.32.7-.53 1-.43.03-.84-.06-1.22-.3a2.2 2.2 0 0 1-.84-.96c.43-.61.75-1.21.95-1.8.2-.6.24-1.11.14-1.53-.18-.72-.7-.96-1.57-.73-.37.1-.73.27-1.08.52a7.87 7.87 0 0 0-1.92 2.25c-.27.48-.51 1-.71 1.56-1.4 3.8-1.67 7.4-.83 10.79.3 1.2.72 2.11 1.27 2.75.55.63 1.14.93 1.77.9a8.68 8.68 0 0 0 2.26-2c.87-1 1.77-2.25 2.72-3.74a1 1 0 0 1 .41.44 32.1 32.1 0 0 1-2.06 4.06c-.37.6-.74 1.13-1.12 1.6-.38.48-.74.87-1.1 1.17-1.96.5-3.59.34-4.88-.51-1.3-.86-2.21-2.37-2.76-4.55" clip-path="url(#L)"/>
  </g>
  <g>
    <defs>
      <path id="M" d="M0 0h423.78v311.57H0z"/>
    </defs>
    <clipPath id="N">
      <use overflow="visible" xlink:href="#M"/>
    </clipPath>
    <path fill="#161615" d="M154.4 278.61a3.06 3.06 0 0 1-2.46-.65 4.47 4.47 0 0 1-1.49-2.5 7.89 7.89 0 0 1-.22-2.1c.02-.75.12-1.49.3-2.24.19-.75.45-1.47.78-2.18.33-.7.72-1.34 1.17-1.9.7-.9 1.44-1.44 2.2-1.64.57.14 1.22.58 1.93 1.33a3.4 3.4 0 0 0 .42-.13c.84-.22 1.45.43 1.83 1.96a8.97 8.97 0 0 1-2.1 8.29 8.5 8.5 0 0 1-2.35 1.76m-.7-7.96a11.64 11.64 0 0 0-.83 4.29c.01.43.05.81.13 1.14.1.39.26.74.47 1.07.22.32.41.48.58.49a5.29 5.29 0 0 0 1.74-1.42c.48-.6.86-1.29 1.13-2.06.27-.78.42-1.63.46-2.53a9.89 9.89 0 0 0-.63-3.76c-.1-.24-.24-.43-.4-.58-.64.4-1.18.9-1.6 1.51-.43.6-.78 1.22-1.05 1.85" clip-path="url(#N)"/>
  </g>
  <g>
    <defs>
      <path id="O" d="M0 0h423.78v311.57H0z"/>
    </defs>
    <clipPath id="P">
      <use overflow="visible" xlink:href="#O"/>
    </clipPath>
    <path fill="#161615" d="M174.29 253.86c-.27.07-.52.31-.76.74-.23.42-.45.98-.65 1.69-.2.7-.38 1.52-.52 2.46-.15.94-.26 1.96-.34 3.08l1.16-.3c.4-.1.75-.17 1.05-.2.05.06.1.18.13.35.05.18.08.39.1.62.01.23 0 .41-.06.55l-1.2.2-1.23.2c-.15 2.76-.3 5.18-.46 7.23-.15 2.06-.33 3.83-.52 5.32-.2 1.5-.41 2.73-.66 3.7a9.56 9.56 0 0 1-.9 2.4 4.13 4.13 0 0 1-1.23 1.4c-.47.33-1 .57-1.63.73a4.49 4.49 0 0 1-3.44-.4 4.33 4.33 0 0 1-1.25 1.34c-.47.3-1.02.55-1.65.71-1.13.3-2.19.16-3.17-.41a.9.9 0 0 1 0-.4.64.64 0 0 1 .15-.31c.29.21.63.35 1.04.41.4.06.8.04 1.2-.06.41-.11.76-.3 1.06-.58.3-.27.55-.67.76-1.2.22-.52.4-1.17.55-1.97.14-.8.28-1.77.4-2.92.18-1.77.3-3.67.4-5.7l.26-6.76a92.1 92.1 0 0 0-2 .73 1 1 0 0 1-.36-.53c.19-.12.5-.28.9-.48l1.5-.69c.06-1.3.18-2.5.36-3.58.19-1.09.45-2.04.78-2.87.34-.83.75-1.5 1.25-2.04.5-.52 1.1-.88 1.8-1.06a3.62 3.62 0 0 1 1.9.03c.64.18 1.25.39 1.81.64.39-.7.82-1.3 1.32-1.8a3.47 3.47 0 0 1 2.12-1.05l.42-.07c.11-.15.28-.3.5-.46.2-.15.4-.24.58-.3.19-.04.46 0 .81.13a12.11 12.11 0 0 0-.25 2.26c-.09 1.3-.31 2.19-.67 2.66-.18.04-.33-.16-.46-.62a4.4 4.4 0 0 0-.41-.9 2.97 2.97 0 0 1-.42-1.2l-.07-.72m-5.91 22.78a201.93 201.93 0 0 0 .56-9.3c.05-1.17.09-2.3.11-3.4l-.45.11-1.32.34-1.44.38c-.12 2.6-.26 4.9-.4 6.87-.13 1.98-.3 3.7-.47 5.18-.18 1.47-.4 2.71-.64 3.72-.25 1-.54 1.84-.86 2.51a3 3 0 0 0 2.14.25c.4-.1.74-.3 1.03-.57.3-.27.55-.67.77-1.19.22-.52.4-1.18.56-1.98.15-.8.29-1.77.4-2.92m.71-14a16.6 16.6 0 0 1 1.33-5.84 3.51 3.51 0 0 0-1.77-.18c-.41.1-.76.33-1.04.67-.29.34-.54.8-.74 1.4-.21.59-.39 1.29-.53 2.1-.15.81-.28 1.75-.4 2.82a8.5 8.5 0 0 1 1.52-.55l1.63-.43" clip-path="url(#P)"/>
  </g>
  <g>
    <defs>
      <path id="Q" d="M0 0h423.78v311.57H0z"/>
    </defs>
    <clipPath id="R">
      <use overflow="visible" xlink:href="#Q"/>
    </clipPath>
    <path fill="#161615" d="M182.79 259.6c.19 1.03.23 1.93.12 2.73-.1.8-.35 1.53-.75 2.21-.4.68-.92 1.34-1.57 1.97-.65.64-1.44 1.3-2.35 1.96a5.3 5.3 0 0 1 .13.64c.06.21.12.43.21.65s.2.41.33.58c.13.18.27.3.45.4.17.08.37.09.6.03.42-.11.82-.32 1.18-.62s.7-.64 1-1.02c.3-.38.57-.78.81-1.2l.64-1.13c.2.1.37.2.51.3a12.26 12.26 0 0 1-1.74 3.03 6.92 6.92 0 0 1-2.1 1.86 3.96 3.96 0 0 1-2.87-.56 3.7 3.7 0 0 1-1.53-2.25 8.08 8.08 0 0 1-.24-2.1c.01-.74.1-1.47.27-2.2.16-.72.4-1.42.69-2.1.3-.68.64-1.3 1.03-1.85.4-.55.83-1.01 1.3-1.4.47-.38.96-.64 1.49-.77.75-.1 1.55.19 2.39.85m-1.44 1.22c-.41.18-.81.47-1.2.89-.39.41-.72.9-1 1.5a9.87 9.87 0 0 0-.95 4.28 11.1 11.1 0 0 0 2.56-3.22c.6-1.16.8-2.3.59-3.44" clip-path="url(#R)"/>
  </g>
  <g>
    <defs>
      <path id="S" d="M0 0h423.78v311.57H0z"/>
    </defs>
    <clipPath id="T">
      <use overflow="visible" xlink:href="#S"/>
    </clipPath>
    <path fill="#161615" d="M192.99 256.95a8.8 8.8 0 0 1 .12 2.72c-.1.8-.35 1.53-.75 2.21-.4.69-.92 1.35-1.57 1.98s-1.44 1.29-2.35 1.96l.06.3a4.51 4.51 0 0 0 .61 1.57c.13.17.28.3.45.39.17.08.37.1.6.03a3.1 3.1 0 0 0 1.18-.61c.37-.3.7-.65 1-1.03.3-.37.57-.78.81-1.2.25-.4.46-.79.65-1.13.19.1.36.2.5.3a12.14 12.14 0 0 1-1.74 3.04 6.93 6.93 0 0 1-2.1 1.85 3.98 3.98 0 0 1-2.86-.56 3.7 3.7 0 0 1-1.54-2.26 8.13 8.13 0 0 1-.23-2.1c0-.73.1-1.46.26-2.18.17-.73.4-1.43.69-2.11.3-.68.64-1.3 1.03-1.85.4-.55.83-1.01 1.3-1.4.47-.37.97-.63 1.49-.77.75-.1 1.55.2 2.39.85m-1.44 1.23c-.41.18-.81.47-1.2.88a5.9 5.9 0 0 0-1 1.5 9.83 9.83 0 0 0-.95 4.29c1.1-.98 1.96-2.06 2.57-3.22s.8-2.32.58-3.45" clip-path="url(#T)"/>
  </g>
  <g>
    <defs>
      <path id="U" d="M0 0h423.78v311.57H0z"/>
    </defs>
    <clipPath id="V">
      <use overflow="visible" xlink:href="#U"/>
    </clipPath>
    <path fill="#161615" d="M202.52 255.27a4.1 4.1 0 0 1-.67-1.35c.44-.04.84-.11 1.22-.22l1.05-.27a23.64 23.64 0 0 1 1.38-4.32c.17-.34.3-.56.4-.67a7.1 7.1 0 0 1 2.19.05c.24.04.4.1.5.18-.31.73-.58 1.4-.79 2.02-.21.61-.43 1.3-.66 2.08l.97-.25c.32-.08.64-.2.96-.33a.96.96 0 0 1 .44.61c-.7.51-1.6.91-2.72 1.2a30.07 30.07 0 0 0-.7 5.04 21 21 0 0 0 0 2.15c.04.66.12 1.25.25 1.75.18.71.54 1.04 1.08.99a5.7 5.7 0 0 0 1.27-.72c.38-.3.7-.61.97-.98.13.12.21.23.26.32-.06.17-.18.38-.37.63a9.22 9.22 0 0 1-1.27 1.44c-.22.2-.4.32-.52.37-.4.1-.8.13-1.25.06a5.03 5.03 0 0 1-1.23-.32 3.54 3.54 0 0 1-1-.6 1.6 1.6 0 0 1-.53-.82c-.1-.39-.17-.89-.21-1.51-.05-.62-.06-1.3-.05-2.05a43.3 43.3 0 0 1 .39-4.83l-1.36.35z" clip-path="url(#V)"/>
  </g>
  <g>
    <defs>
      <path id="W" d="M0 0h423.78v311.57H0z"/>
    </defs>
    <clipPath id="X">
      <use overflow="visible" xlink:href="#W"/>
    </clipPath>
    <path fill="#161615" d="M215.43 262.72a3.05 3.05 0 0 1-2.47-.65 4.42 4.42 0 0 1-1.49-2.51 7.84 7.84 0 0 1-.22-2.09c.02-.75.12-1.5.3-2.24.2-.74.45-1.47.78-2.17.33-.72.72-1.35 1.17-1.92a4.3 4.3 0 0 1 2.2-1.63c.57.14 1.22.59 1.93 1.33l.2-.06.22-.07c.84-.22 1.45.43 1.83 1.95a8.98 8.98 0 0 1-2.1 8.3 8.48 8.48 0 0 1-2.35 1.76m-.7-7.97a11.39 11.39 0 0 0-.74 2.9c-.07.5-.1.96-.09 1.4.01.43.06.81.14 1.14.1.38.25.75.47 1.07.21.32.4.48.58.49a5.29 5.29 0 0 0 1.73-1.42c.48-.6.86-1.29 1.13-2.07.27-.77.42-1.61.46-2.52a9.83 9.83 0 0 0-.62-3.77c-.11-.23-.25-.42-.4-.57-.65.4-1.18.9-1.61 1.5-.43.62-.78 1.23-1.05 1.85" clip-path="url(#X)"/>
  </g>
  <g>
    <defs>
      <path id="Y" d="M0 0h423.78v311.57H0z"/>
    </defs>
    <clipPath id="Z">
      <use overflow="visible" xlink:href="#Y"/>
    </clipPath>
    <path fill="#161615" d="M235.53 246.25a5.06 5.06 0 0 1-.25 2.75c-.1.22-.22.34-.34.38-.18.02-.31-.07-.4-.29v-.24l.04-.39.04-.42c0-.14 0-.26-.03-.36-.05-.22-.15-.4-.3-.53a.5.5 0 0 0-.47-.12c-.63.16-1.02.7-1.15 1.59a10.07 10.07 0 0 0 .49 3.96l.9-.23.77-.2c.02.03.04.1.06.19.04.14.03.26-.01.34-.35.17-.62.31-.82.43-.2.1-.35.2-.45.28-.1.08-.15.15-.16.21-.01.06 0 .14.02.24l.1.39c.05.12.1.28.14.47a4.96 4.96 0 0 1-.27 3.55 4.6 4.6 0 0 1-2.65 2.22c-.22.04-.47.03-.73-.02a3.38 3.38 0 0 1-1.5-.71 2.06 2.06 0 0 1-.5-.58 4.48 4.48 0 0 1-.06-1.87 5.12 5.12 0 0 1 1.94-3.22 4.92 4.92 0 0 1 1.85-.91c-.1-.4-.25-.8-.42-1.16l-.54-1.07-.52-1.01a4.4 4.4 0 0 1-.37-1 3.6 3.6 0 0 1-.07-1.38 5 5 0 0 1 1.16-2.57c.31-.36.67-.65 1.06-.85.18 0 .45.08.8.24.36.16.71.35 1.07.56s.69.45.98.7c.3.23.49.45.59.63m-5.09 13.12c.34-.26.64-.6.91-.99a5.6 5.6 0 0 0 .83-4.02c-.3.13-.62.37-.94.72a6.74 6.74 0 0 0-1.4 2.48c-.13.43-.16.78-.1 1.06.1.35.33.6.7.75" clip-path="url(#Z)"/>
  </g>
  <g>
    <defs>
      <path id="aa" d="M0 0h423.78v311.57H0z"/>
    </defs>
    <clipPath id="ab">
      <use overflow="visible" xlink:href="#aa"/>
    </clipPath>
    <path fill="#161615" d="M237.65 246.12c-.1-.07-.23-.26-.37-.56-.15-.3-.24-.56-.3-.79.43-.04.83-.11 1.21-.21l1.05-.28a24.5 24.5 0 0 1 1.38-4.33c.17-.32.3-.55.41-.66.16-.04.37-.06.63-.07a7.9 7.9 0 0 1 1.56.12c.23.04.4.1.5.18-.32.73-.59 1.4-.8 2.02-.21.61-.43 1.3-.65 2.08l.96-.25c.32-.08.65-.2.97-.33.1.06.19.15.27.26.07.1.13.22.16.36-.7.5-1.6.9-2.72 1.2a30.59 30.59 0 0 0-.7 5.03c-.04.77-.03 1.48 0 2.15.04.66.12 1.25.25 1.75.18.71.54 1.04 1.09.99a5.52 5.52 0 0 0 2.23-1.7c.14.12.22.23.26.33-.06.16-.18.37-.36.63a10.52 10.52 0 0 1-1.27 1.44c-.22.19-.4.3-.52.36-.4.1-.81.12-1.25.06a5 5 0 0 1-1.23-.32 3.55 3.55 0 0 1-1-.61 1.6 1.6 0 0 1-.53-.8c-.1-.4-.17-.9-.21-1.52-.05-.61-.06-1.3-.05-2.04a46.78 46.78 0 0 1 .39-4.84l-1.36.35z" clip-path="url(#ab)"/>
  </g>
  <g>
    <defs>
      <path id="ac" d="M0 0h423.78v311.57H0z"/>
    </defs>
    <clipPath id="ad">
      <use overflow="visible" xlink:href="#ac"/>
    </clipPath>
    <path fill="#161615" d="M253.28 241.5a3.32 3.32 0 0 1 1.22 0c.2.05.37.11.51.18.15.06.23.14.25.22a33.98 33.98 0 0 0-.56 4.44c-.03.68-.03 1.3 0 1.89.03.57.1 1.06.2 1.47.12.45.26.81.43 1.09.17.27.38.45.64.52a3.4 3.4 0 0 1-1.44.84c-.86.22-1.43-.27-1.73-1.46a12 12 0 0 1-.04-4.03 15.84 15.84 0 0 1-1.4 4.44c-.3.61-.64 1.13-1 1.56a3.1 3.1 0 0 1-1.05.88c-.6.15-1.13 0-1.63-.45a3.7 3.7 0 0 1-1.07-1.94 8.42 8.42 0 0 1-.15-3.02c.13-1.11.39-2.18.76-3.2.39-1 .85-1.9 1.4-2.66a3.37 3.37 0 0 1 1.8-1.39c.18 0 .38.06.62.15a4.5 4.5 0 0 1 1.3.84c.18.16.3.32.35.46-.6.26-1.19.75-1.73 1.45-.54.71-.99 1.52-1.35 2.4-.36.9-.6 1.82-.74 2.77s-.11 1.8.08 2.53c.07.31.23.47.47.5.44-.22.87-.76 1.3-1.62.43-.86.88-2.14 1.37-3.84a80.23 80.23 0 0 0 .93-3.72l.27-1.3" clip-path="url(#ad)"/>
  </g>
  <g>
    <defs>
      <path id="ae" d="M0 0h423.78v311.57H0z"/>
    </defs>
    <clipPath id="af">
      <use overflow="visible" xlink:href="#ae"/>
    </clipPath>
    <path fill="#161615" d="M267.2 244.32a60.92 60.92 0 0 1-.28 3.52 28.24 28.24 0 0 1-.5 2.98 19.85 19.85 0 0 1-1.84 4.97 9.17 9.17 0 0 1-1.82 2.38 5.16 5.16 0 0 1-4.56 1.32 4.72 4.72 0 0 1-1.05-.3c-.3-.14-.54-.3-.71-.5-.06-.2.02-.4.2-.6a6.3 6.3 0 0 0 1.01.44c.14.03.27.04.41.02a5.14 5.14 0 0 0 2.92-1.6c.73-.77 1.35-1.75 1.87-2.95.52-1.2.92-2.58 1.2-4.16.28-1.59.43-3.31.43-5.17l-.46 1.38c-.19.55-.4 1.1-.65 1.65-.25.56-.52 1.07-.82 1.55-.3.47-.6.81-.94 1.04a3.15 3.15 0 0 1-2.51-.52c-.25-.18-.44-.4-.58-.68a7 7 0 0 1-.3-2.12 21.55 21.55 0 0 1 1.21-7.24c.3-.78.65-1.41 1.04-1.91a4.28 4.28 0 0 1 1.12-.11c.22.01.44.04.65.07.21.04.4.12.58.23-.13.2-.38.85-.73 1.92a27.53 27.53 0 0 0-1.05 5.34 27.23 27.23 0 0 0-.05 2.32c0 .38.04.67.09.88.04.13.08.22.13.28.06.06.1.1.15.12.27-.13.6-.47.96-1.02.37-.55.74-1.36 1.12-2.42.23-.69.44-1.36.6-2.01l.52-1.98.51-2.05c.18-.7.38-1.43.6-2.17a5.57 5.57 0 0 1 2.06 0c.19.04.34.1.44.17-.23 1.2-.43 2.36-.6 3.5a35.2 35.2 0 0 0-.36 3.43" clip-path="url(#af)"/>
  </g>
  <g>
    <defs>
      <path id="ag" d="M0 0h423.78v311.57H0z"/>
    </defs>
    <clipPath id="ah">
      <use overflow="visible" xlink:href="#ag"/>
    </clipPath>
    <path fill="#161615" d="M270.56 251.83a1.11 1.11 0 0 1-.37-.33 1.35 1.35 0 0 1-.25-.5 7.92 7.92 0 0 0 1.2-2.43c.2-.72.2-1.45 0-2.2a10.3 10.3 0 0 0-.9-2.38 6.77 6.77 0 0 1 2.38.02c.35.07.65.18.9.33.26.15.44.32.53.5a8.78 8.78 0 0 1-3.5 7" clip-path="url(#ah)"/>
  </g>
  <g>
    <defs>
      <path id="ai" d="M0 0h423.78v311.57H0z"/>
    </defs>
    <clipPath id="aj">
      <use overflow="visible" xlink:href="#ai"/>
    </clipPath>
    <path fill="#161615" d="M190.53 285.09c.25 1 .2 1.96-.14 2.89a6.62 6.62 0 0 1-1.72 2.53c.7.26 1.31.65 1.82 1.17.5.52.86 1.14 1.04 1.86.22.88.17 1.8-.13 2.8-.3.98-.8 1.9-1.5 2.79-.68.87-1.53 1.66-2.52 2.35a10 10 0 0 1-3.2 1.48 7.24 7.24 0 0 1-3.43.13 5.42 5.42 0 0 1-2.68-1.46l.18-1.97a89.53 89.53 0 0 1 .66-5.16c.13-.87.26-1.67.39-2.37.25-1.53.5-2.82.76-3.85.25-1.03.5-1.86.76-2.5-.8.5-1.51 1.02-2.14 1.56a6.5 6.5 0 0 0-1.32 1.41 2.06 2.06 0 0 1-.55-.32 5.5 5.5 0 0 1-1.1-1.17 2.63 2.63 0 0 1-.32-.6c.34-.4.81-.83 1.4-1.26.6-.44 1.25-.86 1.98-1.25.73-.4 1.48-.76 2.27-1.1.8-.32 1.56-.58 2.3-.77 1.9-.5 3.5-.5 4.77 0a3.81 3.81 0 0 1 2.42 2.8m-7.61 8.17a2.61 2.61 0 0 1-1-.44 98.01 98.01 0 0 0-.74 5.14c-.08.74-.14 1.39-.18 1.93-.03.54-.03.93.01 1.16.26.07.55.1.87.08.33-.01.72-.08 1.18-.2a10.7 10.7 0 0 0 5.26-3.19 7.08 7.08 0 0 0 1.33-2.27c.27-.8.32-1.57.13-2.31-.26-1.07-.9-1.73-1.93-1.96a11.2 11.2 0 0 1-3.99 1.87l-.51.13c-.12.03-.26.05-.43.06m2.5-9.63a10.02 10.02 0 0 0-2.17.83c.08.05.15.1.21.16l.16.2c-.1.24-.2.57-.3 1a62.05 62.05 0 0 0-1.14 5.38 8.5 8.5 0 0 1 2.08-.77 6.44 6.44 0 0 1 1.22-.22c.72-.32 1.36-.7 1.91-1.1.55-.41 1-.84 1.36-1.29.36-.45.61-.9.75-1.37.14-.46.15-.92.04-1.38a2 2 0 0 0-1.35-1.52 4.86 4.86 0 0 0-2.76.08" clip-path="url(#aj)"/>
  </g>
  <g>
    <defs>
      <path id="ak" d="M0 0h423.78v311.57H0z"/>
    </defs>
    <clipPath id="al">
      <use overflow="visible" xlink:href="#ak"/>
    </clipPath>
    <path fill="#161615" d="M197.98 298.3a3.06 3.06 0 0 1-2.46-.65 4.46 4.46 0 0 1-1.5-2.51 7.97 7.97 0 0 1-.2-2.1c0-.74.1-1.48.3-2.23.18-.74.44-1.47.76-2.18.34-.7.72-1.34 1.17-1.9.71-.9 1.44-1.44 2.2-1.64a4.4 4.4 0 0 1 1.94 1.33l.2-.06.22-.07c.84-.22 1.45.43 1.83 1.95a8.9 8.9 0 0 1-.5 5.87 8.52 8.52 0 0 1-3.96 4.19m-.7-7.96a11.41 11.41 0 0 0-.82 4.28c0 .44.05.82.13 1.15.1.39.26.74.47 1.06.22.33.41.5.58.5a5.3 5.3 0 0 0 1.74-1.42c.48-.6.86-1.3 1.13-2.07.27-.77.42-1.62.45-2.52a9.82 9.82 0 0 0-.62-3.77c-.1-.23-.24-.42-.4-.57-.64.4-1.18.9-1.6 1.5-.44.62-.79 1.23-1.05 1.86" clip-path="url(#al)"/>
  </g>
  <g>
    <defs>
      <path id="am" d="M0 0h423.78v311.57H0z"/>
    </defs>
    <clipPath id="an">
      <use overflow="visible" xlink:href="#am"/>
    </clipPath>
    <path fill="#161615" d="M209.07 295.41a3.07 3.07 0 0 1-2.47-.65 4.45 4.45 0 0 1-1.49-2.5 8.06 8.06 0 0 1-.22-2.1c.02-.74.12-1.49.3-2.24.2-.74.45-1.47.78-2.18.33-.7.72-1.33 1.17-1.9a4.3 4.3 0 0 1 2.2-1.64c.57.15 1.22.59 1.93 1.34l.2-.07.22-.07c.84-.22 1.45.44 1.83 1.96a8.86 8.86 0 0 1-.5 5.87 8.55 8.55 0 0 1-3.95 4.18m-.7-7.96a12.17 12.17 0 0 0-.83 4.29c.01.44.05.82.13 1.14.1.39.26.74.47 1.07.22.32.41.48.58.5a5.32 5.32 0 0 0 1.74-1.43c.48-.6.86-1.29 1.13-2.07s.42-1.61.46-2.52a9.96 9.96 0 0 0-.63-3.77c-.1-.23-.24-.42-.4-.57-.64.4-1.18.9-1.6 1.5-.43.62-.79 1.24-1.05 1.86" clip-path="url(#an)"/>
  </g>
  <g>
    <defs>
      <path id="ao" d="M0 0h423.78v311.57H0z"/>
    </defs>
    <clipPath id="ap">
      <use overflow="visible" xlink:href="#ao"/>
    </clipPath>
    <path fill="#161615" d="M216.6 290.08a9.78 9.78 0 0 1-.17-2.54c.03-1.12.14-2.35.3-3.7a74.35 74.35 0 0 1 1.57-8.38c.33-1.29.67-2.42 1.03-3.4.35-.97.7-1.65 1.02-2.04.23-.05.49-.01.8.1a4.59 4.59 0 0 1 1.65 1.1c.21.23.35.46.4.7-.56.76-1.1 1.7-1.61 2.8-.5 1.11-.96 2.3-1.35 3.56a34.94 34.94 0 0 0-1.5 7.93c.29-1.02.62-1.97.98-2.85.38-.87.78-1.64 1.2-2.3.43-.67.87-1.21 1.33-1.63.46-.43.93-.7 1.4-.82a2.5 2.5 0 0 1 1.57 1.79c.13.51.15 1.06.08 1.64a6.2 6.2 0 0 1-1.34 3.11 3.7 3.7 0 0 1-1.21.97 13.43 13.43 0 0 0 2.34 3.04c.47.46 1 .87 1.55 1.23.55.35 1.14.62 1.78.8a2.58 2.58 0 0 1-.7 1.15 3.65 3.65 0 0 1-1.4.8c-.43.1-.88-.01-1.36-.35a6.24 6.24 0 0 1-1.48-1.63c-.4-.6-.83-1.34-1.28-2.2a43.8 43.8 0 0 1-1.32-2.73c.18-.2.4-.5.67-.86.26-.37.53-.8.8-1.26 1.06-1.73 1.45-3.1 1.2-4.1-.03-.13-.13-.18-.3-.13-.32.08-.66.33-1.02.73-.35.4-.7.93-1.06 1.57-.35.64-.7 1.38-1.02 2.2-.32.84-.61 1.71-.87 2.64-.11.38-.2.8-.24 1.26a12.07 12.07 0 0 0 .17 4.04c.06.23.13.4.21.54-.5.08-.84.03-1-.15-.18-.16-.32-.3-.44-.39-.11-.1-.23-.18-.35-.23-.17-.08-.35-.29-.54-.64-.19-.35-.35-.8-.49-1.37" clip-path="url(#ap)"/>
  </g>
  <g>
    <defs>
      <path id="aq" d="M0 0h423.78v311.57H0z"/>
    </defs>
    <clipPath id="ar">
      <use overflow="visible" xlink:href="#aq"/>
    </clipPath>
    <path fill="#161615" d="M235.78 277.22a4.94 4.94 0 0 1-.02 1.98c-.06.3-.14.56-.23.78-.1.21-.22.33-.34.37-.18.03-.31-.06-.4-.29a.77.77 0 0 1 0-.24l.05-.39.03-.42c0-.14 0-.26-.03-.36-.06-.22-.15-.4-.3-.52a.48.48 0 0 0-.47-.13c-.64.17-1.02.7-1.15 1.59a10.1 10.1 0 0 0 .49 3.97c.33-.1.63-.17.9-.24l.76-.2c.03.03.05.1.07.19.04.14.03.25-.01.34-.35.17-.62.32-.82.43-.2.1-.35.2-.44.28-.1.08-.16.15-.17.21-.01.07 0 .14.02.24l.1.38c.05.13.1.29.14.48a4.97 4.97 0 0 1-.27 3.55 4.6 4.6 0 0 1-2.65 2.22c-.22.04-.47.03-.73-.02a3.43 3.43 0 0 1-1.5-.7 2.1 2.1 0 0 1-.5-.59 4.4 4.4 0 0 1-.06-1.87 5.23 5.23 0 0 1 3.79-4.13c-.1-.4-.25-.8-.42-1.16l-.54-1.07-.51-1.01c-.17-.33-.3-.66-.38-1-.11-.45-.13-.9-.07-1.38a5 5 0 0 1 1.16-2.57 3.7 3.7 0 0 1 1.06-.85c.19 0 .45.08.8.24a8.76 8.76 0 0 1 2.05 1.26c.3.24.49.45.59.63m-5.09 13.12c.35-.26.65-.6.9-.99a5.4 5.4 0 0 0 .94-2.67c.04-.48 0-.93-.1-1.35-.3.14-.61.38-.93.73a6.77 6.77 0 0 0-1.41 2.47c-.13.43-.16.78-.1 1.06.1.35.33.6.7.75" clip-path="url(#ar)"/>
  </g>
  <g>
    <defs>
      <path id="as" d="M0 0h423.78v311.57H0z"/>
    </defs>
    <clipPath id="at">
      <use overflow="visible" xlink:href="#as"/>
    </clipPath>
    <path fill="#161615" d="M244.15 275.47a4.12 4.12 0 0 1-.67-1.35c.43-.05.84-.12 1.22-.22l1.04-.27a21.78 21.78 0 0 1 .9-3.14c.17-.46.33-.85.49-1.19.16-.33.3-.55.4-.66.16-.05.37-.07.63-.08a6.7 6.7 0 0 1 1.57.13c.23.04.4.1.5.18a28.27 28.27 0 0 0-1.46 4.1l.96-.25c.33-.09.65-.2.97-.34a1.04 1.04 0 0 1 .43.62c-.7.5-1.6.9-2.71 1.2a30.2 30.2 0 0 0-.7 5.03c-.04.77-.04 1.49 0 2.16.04.66.12 1.24.24 1.75.18.71.54 1.04 1.09.99a5.65 5.65 0 0 0 2.24-1.7c.13.12.21.23.25.32-.06.17-.18.38-.36.63a10.8 10.8 0 0 1-1.27 1.44c-.22.2-.4.32-.52.37-.4.1-.8.12-1.25.06a4.99 4.99 0 0 1-1.23-.32 3.54 3.54 0 0 1-1-.61 1.6 1.6 0 0 1-.53-.8c-.1-.4-.17-.9-.21-1.52-.05-.62-.06-1.3-.05-2.05a46.57 46.57 0 0 1 .4-4.83l-1.37.35z" clip-path="url(#at)"/>
  </g>
  <g>
    <defs>
      <path id="au" d="M0 0h423.78v311.57H0z"/>
    </defs>
    <clipPath id="av">
      <use overflow="visible" xlink:href="#au"/>
    </clipPath>
    <path fill="#161615" d="M257.06 282.92a3.06 3.06 0 0 1-2.47-.65 4.46 4.46 0 0 1-1.5-2.51 7.94 7.94 0 0 1-.2-2.1c0-.74.1-1.48.3-2.23.18-.75.44-1.47.77-2.18.32-.7.72-1.34 1.17-1.9a4.3 4.3 0 0 1 2.2-1.64c.57.14 1.22.58 1.93 1.33l.2-.07.22-.06c.84-.22 1.45.43 1.83 1.95a9.14 9.14 0 0 1-.5 5.87 8.55 8.55 0 0 1-3.95 4.19m-.7-7.97a11.5 11.5 0 0 0-.83 4.29c0 .44.05.82.13 1.15.1.38.25.74.47 1.06.22.33.4.49.58.5a5.32 5.32 0 0 0 1.73-1.43 6.9 6.9 0 0 0 1.13-2.06 8.7 8.7 0 0 0 .47-2.52 9.97 9.97 0 0 0-.63-3.77 1.95 1.95 0 0 0-.4-.57c-.64.39-1.18.89-1.6 1.5-.44.61-.79 1.23-1.05 1.85" clip-path="url(#av)"/>
  </g>
  <g>
    <defs>
      <path id="aw" d="M0 0h423.78v311.57H0z"/>
    </defs>
    <clipPath id="ax">
      <use overflow="visible" xlink:href="#aw"/>
    </clipPath>
    <path fill="#161615" d="M268.38 286.77a.46.46 0 0 1 .02-.29l.15-.3a5.45 5.45 0 0 0 1.03.43c.14.04.28.04.4.02a4.73 4.73 0 0 0 2.64-1.37 8.1 8.1 0 0 0 1.63-2.48c.45-1.01.79-2.2 1.02-3.55.24-1.35.37-2.85.4-4.5a12.28 12.28 0 0 1-1.99 2.54c-.25.25-.46.44-.65.58a1.7 1.7 0 0 1-.84-.16c-.27-.12-.53-.3-.77-.53-.25-.23-.46-.5-.64-.83a4.4 4.4 0 0 1-.42-1.07c-.16-.63-.2-1.31-.14-2.03a11.25 11.25 0 0 1 1.32-4.36 11.1 11.1 0 0 1 2.77-3.37c.54-.4 1.1-.68 1.66-.83.56-.15 1-.14 1.34.03.33.16.64.5.9 1.04-.2-.05-.43-.04-.7.03-.38.1-.78.36-1.2.8-.42.44-.83.97-1.23 1.6-.39.63-.76 1.33-1.1 2.1a17.12 17.12 0 0 0-1.32 4.5c-.1.7-.07 1.3.05 1.8.03.11.06.18.08.2.02.01.05.02.08.01.14-.03.31-.17.52-.39a11.72 11.72 0 0 0 1.42-1.96 17.58 17.58 0 0 0 1.92-4.35c.32-1.11.54-2.17.64-3.16.44-.08.84-.1 1.2-.08.36.03.62.1.78.19a82.42 82.42 0 0 0-.78 6.02c-.13 1.27-.27 2.45-.4 3.5a40 40 0 0 1-.48 2.98c-.18.91-.41 1.78-.69 2.6-.27.83-.61 1.64-1.02 2.43-.2.38-.43.73-.71 1.06a7.14 7.14 0 0 1-1.86 1.5 4.2 4.2 0 0 1-2.1.54c-.42.01-.82-.02-1.2-.08a4.22 4.22 0 0 1-1.02-.3c-.31-.14-.55-.31-.71-.5" clip-path="url(#ax)"/>
  </g>
  <g>
    <defs>
      <path id="ay" d="M0 0h423.78v311.57H0z"/>
    </defs>
    <clipPath id="az">
      <use overflow="visible" xlink:href="#ay"/>
    </clipPath>
    <path fill="#161615" d="M285.69 275.46a3.07 3.07 0 0 1-2.47-.65 4.48 4.48 0 0 1-1.49-2.5 8 8 0 0 1-.22-2.1c.02-.74.12-1.49.3-2.24.2-.75.45-1.47.78-2.18.33-.7.72-1.34 1.17-1.9.7-.9 1.44-1.44 2.2-1.64.58.14 1.22.59 1.93 1.33l.2-.06.22-.07c.84-.22 1.45.43 1.83 1.96a8.9 8.9 0 0 1-.5 5.87 8.55 8.55 0 0 1-3.95 4.18m-.7-7.96a11.86 11.86 0 0 0-.83 4.29c0 .43.05.81.14 1.14.09.39.25.74.46 1.07.22.32.41.49.58.5a5.35 5.35 0 0 0 1.74-1.43c.48-.6.85-1.29 1.13-2.07.27-.77.42-1.61.46-2.52a9.67 9.67 0 0 0-.63-3.77c-.1-.23-.24-.42-.4-.57-.64.4-1.18.9-1.6 1.5-.44.62-.79 1.24-1.05 1.86" clip-path="url(#az)"/>
  </g>
  <g>
    <defs>
      <path id="aA" d="M0 0h423.78v311.57H0z"/>
    </defs>
    <clipPath id="aB">
      <use overflow="visible" xlink:href="#aA"/>
    </clipPath>
    <path fill="#161615" d="M294.79 274.18c-.2.05-.39.05-.58.01-.2-.05-.38-.1-.55-.2-.16-.08-.3-.18-.42-.3a.72.72 0 0 1-.2-.3 5.12 5.12 0 0 1-.12-1.71c.03-.3.08-.58.17-.82.1-.24.23-.38.4-.43.45-.11.94-.07 1.47.12.53.2.95.46 1.27.8-.14.26-.24.54-.32.85-.07.3-.15.59-.24.86-.08.27-.2.51-.33.72a.91.91 0 0 1-.55.4m-1.09-6.57c-.1-.44-.15-1.1-.13-2 .02-.9.09-1.9.2-3a59.84 59.84 0 0 1 1.1-6.84c.22-1.06.47-2 .72-2.8.26-.8.52-1.35.78-1.65.27-.03.56.02.9.13a5.71 5.71 0 0 1 1.84.99c.25.2.42.4.5.59a17.9 17.9 0 0 0-1.77 3.16 26.07 26.07 0 0 0-1.36 3.94c-.36 1.4-.62 2.88-.78 4.4a26.21 26.21 0 0 0-.07 4.6c-.2 0-.4-.02-.6-.04a1.4 1.4 0 0 1-.55-.18 1.5 1.5 0 0 1-.44-.46c-.14-.2-.25-.49-.34-.84" clip-path="url(#aB)"/>
  </g>
  <g>
    <defs>
      <path id="aC" d="M0 0h423.78v311.57H0z"/>
    </defs>
    <clipPath id="aD">
      <use overflow="visible" xlink:href="#aC"/>
    </clipPath>
    <path fill="#161615" d="M203.9 197c.1-.03.23-.06.38-.06a1.73 1.73 0 0 1 .78.1c.1.04.15.08.17.13a24.78 24.78 0 0 0-.17 2.99c0 .45.03.87.08 1.25.05.39.11.71.2.98.1.3.2.53.33.7.13.18.28.29.45.32a2.42 2.42 0 0 1-.92.63c-.56.19-.97-.1-1.22-.9a8 8 0 0 1-.2-2.67 10.58 10.58 0 0 1-.74 3.02c-.18.41-.37.78-.6 1.08-.21.3-.43.51-.66.64-.39.13-.75.05-1.1-.22a2.5 2.5 0 0 1-.8-1.25c-.2-.6-.28-1.27-.24-2.01a8.97 8.97 0 0 1 1.18-4c.34-.53.72-.86 1.14-1.01.12 0 .25.02.41.07a2.94 2.94 0 0 1 .91.5c.13.1.21.2.25.3-.4.2-.75.55-1.08 1.04a7.85 7.85 0 0 0-1.16 3.54c-.05.64 0 1.2.16 1.68.06.2.18.31.34.31.28-.16.54-.54.79-1.13a16.31 16.31 0 0 0 .89-3.38 49.38 49.38 0 0 0 .43-2.65" clip-path="url(#aD)"/>
  </g>
  <g>
    <defs>
      <path id="aE" d="M0 0h423.78v311.57H0z"/>
    </defs>
    <clipPath id="aF">
      <use overflow="visible" xlink:href="#aE"/>
    </clipPath>
    <path fill="#161615" d="M208.34 194.08c.3 0 .61.1.95.31.33.21.6.47.84.78-.03.33-.1.73-.2 1.22a69.96 69.96 0 0 0-.58 2.88c-.07.44-.08.79-.04 1.04a21.68 21.68 0 0 0 .71-1.72 40.82 40.82 0 0 1 .58-1.4l.46-.98c.18-.37.38-.73.6-1.08.21-.35.44-.66.68-.94.25-.27.5-.45.75-.54a.94.94 0 0 1 .76.06c.24.12.45.27.62.43 0 .02-.02.07-.1.13-.06.06-.14.2-.23.42a16.1 16.1 0 0 0-.42 2.21c-.04.45-.06.9-.04 1.33.02.44.08.83.18 1.15.09.27.18.43.27.48.1.05.2.06.32.01.11-.03.23-.1.34-.2.1-.1.19-.15.27-.17.05 0 .1.04.14.1.05.06.08.11.1.17a3 3 0 0 1-.51.65c-.1.1-.21.2-.32.28-.1.08-.2.14-.3.17-.3.1-.56.14-.78.12-.22-.03-.41-.1-.56-.21-.16-.11-.3-.27-.4-.46a3.5 3.5 0 0 1-.44-1.69l.01-.86.09-1.24a4.29 4.29 0 0 0-.97 1.33 20.65 20.65 0 0 0-1.55 3.82l-.33 1.03c-.1.29-.2.49-.3.6a1.18 1.18 0 0 1-.65-.37c-.18-.19-.33-.4-.46-.62-.07-.2-.12-.47-.16-.8a15.1 15.1 0 0 1-.12-2.4 22.42 22.42 0 0 1 .46-3.97c.15-.64.26-1 .33-1.07" clip-path="url(#aF)"/>
  </g>
  <g>
    <defs>
      <path id="aG" d="M0 0h423.78v311.57H0z"/>
    </defs>
    <clipPath id="aH">
      <use overflow="visible" xlink:href="#aG"/>
    </clipPath>
    <path fill="#161615" d="M218.1 191.12c.21-.07.47-.08.78-.05.3.04.6.12.87.26-.19-.41-.38-.8-.58-1.14-.2-.35-.44-.7-.72-1.05a12.4 12.4 0 0 0-1.02-1.12c-.4-.4-.89-.83-1.46-1.33 0-.1.03-.24.1-.4a3.4 3.4 0 0 1 .6-.92c.13-.14.25-.24.38-.3.4.22.8.54 1.22.95a12.22 12.22 0 0 1 2.95 4.64 11.44 11.44 0 0 1 .2 5.47 9.5 9.5 0 0 1-.5 1.64c-.2.5-.43.94-.7 1.3-.27.37-.57.65-.9.83a2.8 2.8 0 0 1-1.88-.15c-.5-.26-.86-.73-1.08-1.41a5.14 5.14 0 0 1-.22-1.23 9.16 9.16 0 0 1 .28-2.85 8.33 8.33 0 0 1 1-2.42c.2-.33.43-.57.68-.72m.88 8.18c.32-.25.6-.65.82-1.2.22-.56.38-1.18.48-1.87.1-.69.14-1.4.1-2.13a8 8 0 0 0-.52-2.5c-.21.2-.42.46-.61.81a9.7 9.7 0 0 0-1 2.52c-.13.48-.23.95-.3 1.4-.07.47-.1.9-.1 1.3s.05.73.14 1c.17.53.5.75.99.67" clip-path="url(#aH)"/>
  </g>
</svg>
